<svg width="16" height="17" viewBox="0 0 16 17" fill="none" xmlns="http://www.w3.org/2000/svg">
<g clip-path="url(#clip0_17953_694)">
<mask id="path-1-inside-1_17953_694" fill="white">
<path d="M9.52373 7.78133L15.4811 1H14.0699L8.89493 6.88693L4.7648 1H0L6.24693 9.90293L0 17.0133H1.4112L6.87253 10.7952L11.2352 17.0133H16M1.92053 2.04213H4.08853L14.0688 16.0224H11.9003"/>
</mask>
<path d="M9.52373 7.78133L15.4811 1H14.0699L8.89493 6.88693L4.7648 1H0L6.24693 9.90293L0 17.0133H1.4112L6.87253 10.7952L11.2352 17.0133H16M1.92053 2.04213H4.08853L14.0688 16.0224H11.9003" fill="black"/>
<path d="M15.4811 1L15.8256 1.3027L16.4945 0.541362H15.4811V1ZM14.0699 1V0.541362H13.8624L13.7254 0.697195L14.0699 1ZM8.89493 6.88693L8.51948 7.15034L8.85439 7.62772L9.2394 7.18974L8.89493 6.88693ZM4.7648 1L5.14025 0.736591L5.00328 0.541362H4.7648V1ZM0 1V0.541362H-0.882092L-0.375436 1.26343L0 1ZM6.24693 9.90293L6.59148 10.2056L6.82951 9.93471L6.62237 9.6395L6.24693 9.90293ZM0 17.0133L-0.344551 16.7106L-1.01344 17.472H0V17.0133ZM1.4112 17.0133V17.472H1.6188L1.7558 17.316L1.4112 17.0133ZM6.87253 10.7952L7.24798 10.5318L6.91292 10.0542L6.52794 10.4925L6.87253 10.7952ZM11.2352 17.0133L10.8598 17.2767L10.9967 17.472H11.2352V17.0133ZM4.08853 2.04213L4.46181 1.77566L4.32463 1.5835H4.08853V2.04213ZM14.0688 16.0224V16.481H14.9597L14.4421 15.7559L14.0688 16.0224ZM9.8683 8.08403L15.8256 1.3027L15.1365 0.697304L9.17917 7.47864L9.8683 8.08403ZM15.4811 0.541362H14.0699V1.45864H15.4811V0.541362ZM13.7254 0.697195L8.55047 6.58413L9.2394 7.18974L14.4143 1.30281L13.7254 0.697195ZM9.27039 6.62352L5.14025 0.736591L4.38935 1.26341L8.51948 7.15034L9.27039 6.62352ZM4.7648 0.541362H0V1.45864H4.7648V0.541362ZM-0.375436 1.26343L5.8715 10.1664L6.62237 9.6395L0.375436 0.736567L-0.375436 1.26343ZM5.90238 9.60022L-0.344551 16.7106L0.344551 17.316L6.59148 10.2056L5.90238 9.60022ZM0 17.472H1.4112V16.5547H0V17.472ZM1.7558 17.316L7.21713 11.0979L6.52794 10.4925L1.0666 16.7107L1.7558 17.316ZM6.49709 11.0586L10.8598 17.2767L11.6106 16.7499L7.24798 10.5318L6.49709 11.0586ZM11.2352 17.472H16V16.5547H11.2352V17.472ZM1.92053 2.50077H4.08853V1.5835H1.92053V2.50077ZM3.71525 2.30861L13.6955 16.2889L14.4421 15.7559L4.46181 1.77566L3.71525 2.30861ZM14.0688 15.5638H11.9003V16.481H14.0688V15.5638Z" fill="black" mask="url(#path-1-inside-1_17953_694)"/>
</g>
<defs>
<clipPath id="clip0_17953_694">
<rect width="16" height="16" fill="white" transform="translate(0 0.525085)"/>
</clipPath>
</defs>
</svg>
